<svg width="14" height="14" viewBox="0 0 14 14" fill="none" xmlns="http://www.w3.org/2000/svg">
<circle cx="6.97461" cy="6.97461" r="6.97461" fill="#F8F6F2"/>
<path d="M2.15537 9.47461V9.39244L2.34435 9.3185C2.43747 9.28015 2.50047 9.23085 2.53333 9.1706C2.57168 9.10486 2.59085 9.01722 2.59085 8.90767V4.61863C2.59085 4.50908 2.57442 4.42417 2.54155 4.36392C2.51416 4.29819 2.44843 4.24615 2.34435 4.20781L2.15537 4.13386V4.05169H6.0911L6.1404 5.31704H6.05823L5.70492 4.54468C5.65562 4.44609 5.60358 4.36666 5.54881 4.3064C5.49403 4.24615 5.41186 4.21602 5.30231 4.21602H3.82333V6.5906H4.7025C4.81206 6.5906 4.89422 6.56321 4.949 6.50844C5.00925 6.44818 5.06129 6.36876 5.10511 6.27016L5.26944 5.9415H5.35161V7.42047H5.26944L5.10511 7.07538C5.05581 6.97678 5.00377 6.90009 4.949 6.84532C4.89422 6.78506 4.81206 6.75493 4.7025 6.75493H3.82333V9.31028H5.48307C5.59263 9.31028 5.67753 9.28289 5.73779 9.22811C5.79804 9.16786 5.84734 9.08569 5.88568 8.98162L6.22256 8.20926H6.30473L6.25543 9.47461H2.15537Z" fill="black"/>
<path d="M6.54866 9.47461L6.57331 9.39244L6.7212 9.31028C6.83076 9.2555 6.91018 9.19525 6.95948 9.12951C7.01426 9.0583 7.0526 8.96518 7.07451 8.85015L7.50999 6.59882C7.57025 6.29207 7.62776 5.97436 7.68254 5.6457C7.74279 5.31156 7.80031 4.98564 7.85509 4.66793C7.89343 4.44882 7.80853 4.28449 7.60037 4.17494L7.51821 4.13386L7.53464 4.05169H9.51483C9.94757 4.05169 10.2927 4.10921 10.5501 4.22424C10.8076 4.33927 10.9911 4.48991 11.1006 4.67615C11.2157 4.86239 11.2732 5.06233 11.2732 5.27596C11.2732 5.47863 11.2102 5.67583 11.0842 5.86755C10.9582 6.05379 10.7665 6.21264 10.509 6.34411C10.2516 6.47557 9.92839 6.56048 9.53948 6.59882C9.92839 6.64264 10.2434 6.73302 10.4844 6.86997C10.7254 7.00691 10.9007 7.17124 11.0102 7.36296C11.1253 7.55468 11.1828 7.75735 11.1828 7.97098C11.1828 8.22843 11.1034 8.47219 10.9445 8.70225C10.7857 8.93232 10.5309 9.11856 10.1804 9.26098C9.83527 9.4034 9.38062 9.47461 8.81642 9.47461H6.54866ZM8.63566 6.53309H8.92324C9.33406 6.53309 9.64355 6.42353 9.85171 6.20443C10.0599 5.97984 10.1639 5.66213 10.1639 5.25131C10.1639 4.91717 10.09 4.66245 9.94209 4.48717C9.79967 4.3064 9.58604 4.21602 9.3012 4.21602H9.07113L8.63566 6.53309ZM8.13445 9.31028H8.61922C9.10126 9.31028 9.46005 9.17334 9.69559 8.89945C9.93661 8.62009 10.0571 8.2613 10.0571 7.82308C10.0571 7.07264 9.69559 6.69742 8.97254 6.69742H8.59457L8.55349 6.91926C8.48776 7.31914 8.41655 7.71901 8.33986 8.11888C8.26865 8.51875 8.20018 8.91588 8.13445 9.31028Z" fill="#E74337"/>
</svg>
